<svg width="35" height="35" viewBox="0 0 35 35" fill="none" xmlns="http://www.w3.org/2000/svg">
<path fill-rule="evenodd" clip-rule="evenodd" d="M32.3233 12.0876L29.7891 6.17432C29.4133 5.29757 29.2255 4.85919 28.9229 4.53739C28.6554 4.25298 28.3251 4.03516 27.9583 3.90137C27.5433 3.75 27.0664 3.75 26.1125 3.75H8.88767C7.93379 3.75 7.45685 3.75 7.04187 3.90137C6.6751 4.03516 6.34477 4.25298 6.07732 4.53739C5.77472 4.85919 5.58684 5.29757 5.21109 6.17432L2.67685 12.0876H32.3233ZM5.50008 19.5609C6.0374 19.7087 6.60325 19.7876 7.18757 19.7876C8.4539 19.7876 9.63461 19.4159 10.6251 18.7772C11.6155 19.4159 12.7962 19.7876 14.0626 19.7876C15.3289 19.7876 16.5096 19.4159 17.5001 18.7772C18.4905 19.4159 19.6712 19.7876 20.9376 19.7876C22.2039 19.7876 23.3846 19.4159 24.3751 18.7772C25.3655 19.4159 26.5462 19.7876 27.8126 19.7876C28.7732 19.7876 29.684 19.5743 30.5001 19.1926V27.25C30.5001 28.6501 30.5001 29.3502 30.2276 29.885C29.9879 30.3554 29.6055 30.7378 29.1351 30.9775C28.6003 31.25 27.9002 31.25 26.5001 31.25H9.50008C8.09994 31.25 7.39988 31.25 6.8651 30.9775C6.39469 30.7378 6.01224 30.3554 5.77256 29.885C5.50008 29.3502 5.50008 28.6501 5.50008 27.25V19.5609ZM7.50003 24.5C7.50003 23.7999 7.50003 23.4499 7.63627 23.1825C7.75611 22.9473 7.94734 22.7561 8.18254 22.6362C8.44993 22.5 8.79996 22.5 9.50003 22.5H14.25C14.9501 22.5 15.3001 22.5 15.5675 22.6362C15.8027 22.7561 15.9939 22.9473 16.1138 23.1825C16.25 23.4499 16.25 23.7999 16.25 24.5V26.75C16.25 27.4501 16.25 27.8001 16.1138 28.0675C15.9939 28.3027 15.8027 28.4939 15.5675 28.6138C15.3001 28.75 14.9501 28.75 14.25 28.75H9.50003C8.79996 28.75 8.44993 28.75 8.18254 28.6138C7.94734 28.4939 7.75611 28.3027 7.63627 28.0675C7.50003 27.8001 7.50003 27.4501 7.50003 26.75V24.5ZM7.18747 18.125C4.70365 18.125 2.67103 16.1931 2.51022 13.75H32.4897C32.3289 16.1931 30.2963 18.125 27.8125 18.125C26.4543 18.125 25.2311 17.5474 24.375 16.6244C23.5189 17.5474 22.2956 18.125 20.9375 18.125C19.5793 18.125 18.3561 17.5474 17.5 16.6244C16.6439 17.5474 15.4206 18.125 14.0625 18.125C12.7043 18.125 11.4811 17.5474 10.625 16.6244C9.76888 17.5474 8.54563 18.125 7.18747 18.125Z" fill="#007AFF"/>
</svg>
