<svg width="35" height="35" viewBox="0 0 35 35" fill="none" xmlns="http://www.w3.org/2000/svg">
<path fill-rule="evenodd" clip-rule="evenodd" d="M17.5 3.75C25.0939 3.75 31.25 9.90608 31.25 17.5C31.25 25.0939 25.0939 31.25 17.5 31.25C9.90608 31.25 3.75 25.0939 3.75 17.5C3.75 9.90608 9.90608 3.75 17.5 3.75ZM18.6679 26.9571C18.2774 26.5666 18.2774 25.9334 18.6679 25.5429L20.7108 23.5H11.875C11.3227 23.5 10.875 23.0523 10.875 22.5C10.875 21.9477 11.3227 21.5 11.875 21.5H20.7108L18.6679 19.4571C18.2774 19.0666 18.2774 18.4334 18.6679 18.0429C19.0584 17.6524 19.6916 17.6524 20.0821 18.0429L23.8321 21.7929C24.2226 22.1834 24.2226 22.8166 23.8321 23.2071L20.0821 26.9571C19.6916 27.3476 19.0584 27.3476 18.6679 26.9571ZM16.3321 9.45711C16.7226 9.06658 16.7226 8.43342 16.3321 8.04289C15.9416 7.65237 15.3084 7.65237 14.9179 8.04289L11.1679 11.7929C10.7774 12.1834 10.7774 12.8166 11.1679 13.2071L14.9179 16.9571C15.3084 17.3476 15.9416 17.3476 16.3321 16.9571C16.7226 16.5666 16.7226 15.9334 16.3321 15.5429L14.2892 13.5H23.125C23.6773 13.5 24.125 13.0523 24.125 12.5C24.125 11.9477 23.6773 11.5 23.125 11.5H14.2892L16.3321 9.45711Z" fill="#007AFF"/>
</svg>
